<svg id="图层_1" data-name="图层 1" xmlns="http://www.w3.org/2000/svg" viewBox="0 0 299.96 437.8"><defs><style>.cls-1{fill:#f8e8db;}.cls-2{fill:#f82c27;}.cls-3{fill:#f8dcca;}.cls-4{fill:#231815;}.cls-5{fill:#202b1e;}.cls-6{fill:#643118;}.cls-7{fill:#b74c1d;}</style></defs><title>人-3</title><path class="cls-1" d="M486,274.51s15.48-34.86,32.39-30.61,36.94,24.3,15.62,43.37-39.28,24.18-39.28,24.18Z" transform="translate(-247.16 -181.2)"/><path class="cls-2" d="M323.15,329.11c-53.37,51.57-31.07,226.28-31.07,226.28s83.47,2.5,145.39-24.6c-8.54-24.47-36.8-168.35-36.8-168.35s96.41-22.66,125.32-65.7l-43-28.9L369.14,335Z" transform="translate(-247.16 -181.2)"/><ellipse class="cls-3" cx="357.31" cy="263.62" rx="57.96" ry="74.52" transform="translate(-253.72 -172.06) rotate(-1.45)"/><ellipse class="cls-4" cx="377.36" cy="249.11" rx="20.87" ry="3.09" transform="translate(-308.12 -43.11) rotate(-19.22)"/><ellipse class="cls-4" cx="381.3" cy="269.78" rx="12.63" ry="5.08" transform="translate(-159.56 451.78) rotate(-86.32)"/><path class="cls-4" d="M373.89,308.12c7.77,8.32,15.75,4.4,20.91-.05Z" transform="translate(-247.16 -181.2)"/><path class="cls-5" d="M292.66,591.87A38.39,38.39,0,0,0,329.57,619l113.52-.76c127.5-.85,115.45-70.32,80.52-93.27,0,0-104.48-22.48-127.58-10.74C375,525,266.82,507.29,292.66,591.87Z" transform="translate(-247.16 -181.2)"/><path class="cls-6" d="M307.91,314.67,319.77,288S299,252.42,325.7,258.35c0,0,5.93,17.78,11.86,14.82s8.89-23.72,8.89-23.72,8.9,5.93,5.93-8.89-3-17.79-3-17.79,44.47-8.89,47.43-11.86l5.93,5.93S420.57,187.2,388,181.27c0,0-86-3-88.94,29.64l-3,14.83S269.37,234.63,307.91,314.67Z" transform="translate(-247.16 -181.2)"/><path class="cls-1" d="M398,510.3s21.13,15.29,12.82,26.79-25,20.73-36.91,5.82c-13.07-16.38-13.05-27.27-13.05-27.27Z" transform="translate(-247.16 -181.2)"/><path class="cls-7" d="M306.76,303s18.09,38.72,88.33,12c0,0,25.94,56.94-8.14,51.43s-57.23-7.3-57.23-7.3L295.2,416s-46.14,18.55-48,2C247.16,418,332.27,361.22,306.76,303Z" transform="translate(-247.16 -181.2)"/></svg>